<svg width="22" height="22" viewBox="0 0 22 22" fill="none" xmlns="http://www.w3.org/2000/svg">
<path d="M11 0C8.01164 0 7.63861 0.01375 6.46525 0.066C5.29375 0.121 4.49625 0.30525 3.795 0.5775C3.07175 0.858 2.45759 1.23475 1.84616 1.84616C1.23475 2.45759 0.857086 3.07084 0.5775 3.795C0.30525 4.49625 0.120084 5.29375 0.066 6.46525C0.011 7.63861 0 8.01164 0 11C0 13.9884 0.01375 14.3614 0.066 15.5347C0.121 16.7054 0.30525 17.5037 0.5775 18.205C0.858 18.9274 1.23475 19.5424 1.84616 20.1539C2.45759 20.7644 3.07084 21.1429 3.795 21.4225C4.49716 21.6939 5.29466 21.8799 6.46525 21.934C7.63861 21.989 8.01164 22 11 22C13.9884 22 14.3614 21.9862 15.5347 21.934C16.7054 21.879 17.5037 21.6939 18.205 21.4225C18.9274 21.142 19.5424 20.7644 20.1539 20.1539C20.7644 19.5424 21.1429 18.9301 21.4225 18.205C21.6939 17.5037 21.8799 16.7054 21.934 15.5347C21.989 14.3614 22 13.9884 22 11C22 8.01164 21.9862 7.63861 21.934 6.46525C21.879 5.29466 21.6939 4.49534 21.4225 3.795C21.142 3.07175 20.7644 2.45759 20.1539 1.84616C19.5424 1.23475 18.9301 0.857086 18.205 0.5775C17.5037 0.30525 16.7054 0.120084 15.5347 0.066C14.3614 0.011 13.9884 0 11 0ZM11 1.98C13.9361 1.98 14.2863 1.99466 15.4459 2.04509C16.5184 2.0955 17.1004 2.27334 17.4873 2.4255C18.0024 2.62441 18.3673 2.86275 18.7541 3.24684C19.1381 3.63184 19.3765 3.99759 19.5754 4.51275C19.7257 4.89959 19.9054 5.48166 19.954 6.55416C20.0063 7.71464 20.0181 8.063 20.0181 11C20.0181 13.937 20.0044 14.2863 19.9504 15.4459C19.8944 16.5184 19.7156 17.1004 19.5644 17.4873C19.3591 18.0024 19.1254 18.3673 18.7404 18.7541C18.3562 19.1381 17.985 19.3765 17.4754 19.5754C17.0904 19.7257 16.4991 19.9054 15.4266 19.954C14.2587 20.0063 13.915 20.0181 10.9725 20.0181C8.02911 20.0181 7.68536 20.0044 6.51841 19.9504C5.445 19.8944 4.85375 19.7156 4.46875 19.5644C3.94716 19.3591 3.58875 19.1254 3.20466 18.7404C2.81875 18.3562 2.57216 17.985 2.37966 17.4754C2.22841 17.0904 2.05059 16.4991 1.99466 15.4266C1.95341 14.2716 1.93875 13.915 1.93875 10.9862C1.93875 8.05661 1.95341 7.69911 1.99466 6.53034C2.05059 5.45784 2.22841 4.8675 2.37966 4.4825C2.57216 3.96 2.81875 3.6025 3.20466 3.21659C3.58875 2.8325 3.94716 2.585 4.46875 2.39341C4.85375 2.24125 5.43216 2.0625 6.50466 2.0075C7.67339 1.96625 8.01714 1.9525 10.9587 1.9525L11 1.98ZM11 5.3515C7.87875 5.3515 5.3515 7.8815 5.3515 11C5.3515 14.1213 7.8815 16.6485 11 16.6485C14.1213 16.6485 16.6485 14.1185 16.6485 11C16.6485 7.87875 14.1185 5.3515 11 5.3515ZM11 14.6666C8.97414 14.6666 7.33336 13.0259 7.33336 11C7.33336 8.97414 8.97414 7.33336 11 7.33336C13.0259 7.33336 14.6666 8.97414 14.6666 11C14.6666 13.0259 13.0259 14.6666 11 14.6666ZM18.1921 5.12875C18.1921 5.8575 17.6 6.44875 16.8721 6.44875C16.1434 6.44875 15.5521 5.85659 15.5521 5.12875C15.5521 4.40091 16.1444 3.80966 16.8721 3.80966C17.5991 3.80875 18.1921 4.40091 18.1921 5.12875Z" fill="#F5F5F5"/>
</svg>
